<svg version="1.0" viewBox="0 0 280 280"><path d="M0 140v140h280V0H0v140zm149.1-84.4l7.9 5.5v9.7l12.5 7.2 12.5 7.2V112l4 2.6 4 2.7v10.1l-.1 10.1-24.4 13.8-24.3 13.8-4.4-2.4c-2.4-1.3-10.1-5.7-17.3-9.6-7.1-4-16.5-9.3-20.7-11.8l-7.8-4.5v-28.1l.1-28.2 24.7-15.2c13.6-8.3 24.9-15.2 25-15.2.2-.1 4 2.4 8.3 5.5zM69.4 195.1c1.4.7 3.2 2.7 4.1 4.5 2.4 5.1 1.1 9.9-4.3 15.6l-4.5 4.8H75v8H50v-3.4c0-3 1-4.5 7.1-10.4 4.6-4.5 7-7.6 6.7-8.7-.5-2.6-2.5-3-3.3-.6-.5 1.8-1.5 2.1-5.6 2.1-5.5 0-6-.9-3.3-6.5 2.6-5.6 11.5-8.2 17.8-5.4zm35.4 9.1c.2 7.8.6 9.8 1.7 9.8s1.5 1.3 1.5 5-.4 5-1.4 5c-.8 0-1.6 1-1.8 2.2-.3 2-1 2.3-5.5 2.6-5.1.3-5.3.2-5.3-2.2 0-2.6-.1-2.6-7.5-2.6H79v-5.1c0-4.6.5-5.8 7.1-15l7.2-10 5.6.3 5.6.3.3 9.7zm152.3-7.6c3.1 1.6 4.5 3.1 5.8 6.8l1.1 2.8-6.2-.5c-3.5-.3-7.5-.8-9-1.2-3.7-1-6.8 2.3-6.8 7.3 0 2.1.6 4.6 1.3 5.5 1.8 2.4 6.8 3.1 9.2 1.3 1.9-1.5 1.8-1.5-1.7-1.6-3.8 0-3.8-.1-3.8-4v-4h17v5.9c0 5.6-.2 6.1-3.9 9.4-11.4 10.3-29.1 3-29.1-12 0-11.8 8-19 19.5-17.5 2.2.2 5.2 1.1 6.6 1.8zm-121.6.4c5.5 2.7 8.5 8 8.5 15.2 0 6.9-2.8 11.4-9 14.6-3.9 1.9-5.8 2.2-13.5 2l-9-.3-.3-16.8-.2-16.7h9.7c7.6 0 10.5.4 13.8 2zm29.5 7.5c1.8 5.2 3.8 9.5 4.2 9.5.4 0 .8-.4.8-.9 0-.6 1.4-4.8 3.1-9.5l3.1-8.6H189v34h-10l-.1-8.3-.1-8.2-2.7 8-2.8 8-4.5.3-4.6.3-2.1-7.3c-1.2-4-2.4-7.8-2.6-8.3-.2-.6-.4 2.7-.4 7.3l-.1 8.3-5.2-.3-5.3-.3-.3-16.8-.2-16.7h13.5l3.5 9.5zm45.3-1.4l5.2 8.2.3-8.2.3-8.1H227v34h-10.7l-5.4-8.2-5.4-8.2-.3 8.2-.3 8.2H194v-34h11l5.3 8.1zm-177.8-.5c1.9 1 3.1 1.1 3.3.5.2-.6 2.6-1.1 5.3-1.1H46v27h-5c-3.9 0-5-.4-5-1.6 0-1.4-.2-1.4-2.2 0-2.9 2.1-8.7 2-11.7 0-8.1-5.8-5.8-23.4 3.4-25.7 3.4-.8 3.9-.7 7 .9z"/><path d="M92.2 210l-2.2 3.5 2.1.3c2.8.5 3.1 0 2.7-4l-.3-3.3-2.3 3.5zm30.8 1.5v7.5h3.3c5.3 0 8.4-4.7 6.6-10-1.2-3.4-3.5-5-7.3-5-2.6 0-2.6.1-2.6 7.5zm-94.4 1.1c-1.7 4.3.6 8.1 4.2 6.9 2.4-.7 3.5-4.1 2.1-6.7-1.2-2.2-5.5-2.4-6.3-.2z"/></svg>